<?xml version="1.0" encoding="UTF-8"?>
<svg viewBox="0 0 693.75214 595.41565" xmlns="http://www.w3.org/2000/svg">
 <defs>
  <filter id="a">
   <feGaussianBlur stdDeviation="2.74014"/>
  </filter>
 </defs>
 <g transform="matrix(4.0905 0 0 4.0905 -1150 -1045.7)" filter="url(#a)" opacity=".86578">
  <path d="m344.82 371.46c0 8.1856-5.7776 10.536-17.321 10.893-11.549 0.35714-18.036-2.7072-18.036-10.893s7.915-14.821 17.679-14.821 17.679 6.6358 17.679 14.821z" stroke="#000" stroke-linecap="round" stroke-linejoin="round" stroke-width=".3"/>
  <path d="m381.61 370.74c0 8.1856-5.7776 10.536-17.321 10.893-11.549 0.35714-18.036-2.7072-18.036-10.893s7.915-14.821 17.679-14.821 17.679 6.6358 17.679 14.821z" stroke="#000" stroke-linecap="round" stroke-linejoin="round" stroke-width=".3"/>
  <path d="m311.47 267.81c-0.27436 7e-3 -0.54374 0.0315-0.8125 0.0625-10.73 9.5674-11.993 27.822-9.375 41.719-2.8018 5.6834-4.2283 11.925-3.9375 18.406 1.0972 24.453 26.152 43.182 55.969 41.844s53.097-22.235 52-46.688c-0.28327-6.3129-1.6918-12.231-4.3438-17.531 24.907-4.1115 19.738 7.0529 30.156 7.9688 4.8806-0.65245 10.603-0.40216 8.3438-8.8438-4.4146-10.302-23.984-7.4247-42.531-5.4375-2.2126-2.7983-4.8542-5.3566-8.0312-7.5938 0.10854-7.8344-3.5993-17.441-8.1562-23.25-1.0362-0.31188-2.1602-0.46591-3.3438-0.4375-6.7713 0.16252-15.765 7.5096-24.938 13.219-1.0357-2e-3 -2.0768 0.0155-3.125 0.0625-4.524 0.20299-8.9018 0.85867-13.062 1.9062-8.9669-8.0818-17.791-15.591-24.812-15.406z"/>
  <g transform="matrix(.98537 .08121 -.07916 1.011 148.28 -8.5496)" stroke="#000">
   <path d="m215.18 315.22c4.346-25.655 19.722-27.217 42.143-13.393-6.0805 25.716-25.104 35.128-40 14.643l-2.1429-1.25z"/>
   <path transform="matrix(1.0601 0 0 1.1069 -16.278 -35.909)" d="m252.03 313.44c0 8.0894-7.01 14.647-15.657 14.647s-15.657-6.5578-15.657-14.647 7.01-14.647 15.657-14.647 15.657 6.5578 15.657 14.647z" fill-rule="evenodd"/>
   <path transform="matrix(.89446 0 0 .92986 21.963 18.234)" d="m252.03 313.44c0 8.0894-7.01 14.647-15.657 14.647s-15.657-6.5578-15.657-14.647 7.01-14.647 15.657-14.647 15.657 6.5578 15.657 14.647z" fill-rule="evenodd"/>
   <path transform="matrix(.77975 0 0 .75446 49.532 71.061)" d="m252.03 313.44c0 8.0894-7.01 14.647-15.657 14.647s-15.657-6.5578-15.657-14.647 7.01-14.647 15.657-14.647 15.657 6.5578 15.657 14.647z" fill-rule="evenodd"/>
   <path transform="translate(-1.2627 45.747)" d="m248.24 259.14c0 3.3474-2.8832 6.0609-6.4397 6.0609s-6.4397-2.7136-6.4397-6.0609 2.8832-6.0609 6.4397-6.0609 6.4397 2.7136 6.4397 6.0609z"/>
   <path transform="matrix(.51143 0 0 .43923 120.23 205.43)" d="m248.24 259.14c0 3.3474-2.8832 6.0609-6.4397 6.0609s-6.4397-2.7136-6.4397-6.0609 2.8832-6.0609 6.4397-6.0609 6.4397 2.7136 6.4397 6.0609z"/>
  </g>
  <g transform="matrix(-.86479 -.10102 -.09827 .88899 548.19 68.99)" stroke="#000">
   <path d="m215.18 315.22c1.3155-33.736 32.349-22.167 37.597-13.14-6.0805 25.716-20.558 34.875-35.454 14.39l-2.1429-1.25z"/>
   <path transform="matrix(1.0601 0 0 1.1069 -16.278 -35.909)" d="m252.03 313.44c0 8.0894-7.01 14.647-15.657 14.647s-15.657-6.5578-15.657-14.647 7.01-14.647 15.657-14.647 15.657 6.5578 15.657 14.647z" fill-rule="evenodd"/>
   <path transform="matrix(.89446 0 0 .92986 23.479 18.234)" d="m252.03 313.44c0 8.0894-7.01 14.647-15.657 14.647s-15.657-6.5578-15.657-14.647 7.01-14.647 15.657-14.647 15.657 6.5578 15.657 14.647z" fill-rule="evenodd"/>
   <path transform="matrix(.77975 0 0 .75446 49.532 71.061)" d="m252.03 313.44c0 8.0894-7.01 14.647-15.657 14.647s-15.657-6.5578-15.657-14.647 7.01-14.647 15.657-14.647 15.657 6.5578 15.657 14.647z" fill-rule="evenodd"/>
   <path transform="translate(-14.395 46.253)" d="m248.24 259.14c0 3.3474-2.8832 6.0609-6.4397 6.0609s-6.4397-2.7136-6.4397-6.0609 2.8832-6.0609 6.4397-6.0609 6.4397 2.7136 6.4397 6.0609z"/>
   <path transform="matrix(.51143 0 0 .43923 101.29 205.68)" d="m248.24 259.14c0 3.3474-2.8832 6.0609-6.4397 6.0609s-6.4397-2.7136-6.4397-6.0609 2.8832-6.0609 6.4397-6.0609 6.4397 2.7136 6.4397 6.0609z"/>
  </g>
  <path d="m323.21 286.08-13.571 10.714c-3.8931 2.4204-6.6461-0.10447-6.5115-2.5 0.78194-5.7041 0.22978-12.434 7.2258-22.857 5.1 1.3349 9.0838 4.1581 13.214 6.7857 3.0394 2.2866 3.0009 4.8972-0.35715 7.8571z" stroke="#000"/>
  <path d="m363.19 291.29c4.83 5.1243 8.4744 9.534 13.636 13.405 3.987 3.1245 7.2958 0.6577 7.4249-2.0021-0.19823-6.3871 1.9417-14.256-5.2794-26.07-7.5112 0.50144-11.319 2.2704-15.518 5.448-3.595 2.1704-3.6018 5.5615-0.26339 9.2193z" stroke="#000" stroke-width="1.106"/>
  <path d="m327.14 331.65 11.429 0.35715-7.1429 4.6428-4.2857-5z" stroke="#000" stroke-linecap="round" stroke-linejoin="round" stroke-width=".3"/>
  <path d="m324.64 338.79c3.1074 2.0116 8.3377 1.9004 14.286 1.0714-3.8923 2.0033-4.3566 13.311-14.286-1.0714z" stroke="#000"/>
  <path d="m330.68 340.98c1.7837 0.59693 3.8842 0.71863 5.9978 0.82075-2.0406 0.13193-4.7036 6.3627-5.9978-0.82075z" stroke="#000"/>
  <path d="m366.07 380.76c0 8.1866-5.6614 10.537-16.973 10.894-11.317 0.35719-17.673-2.7075-17.673-10.894s7.7557-14.823 17.323-14.823 17.323 6.6366 17.323 14.823z" stroke="#000" stroke-linecap="round" stroke-linejoin="round" stroke-width=".29698"/>
  <path d="m397.69 374.56c0 7.7369-5.4303 9.9582-16.28 10.296s-16.951-2.5588-16.951-10.296 7.4391-14.009 16.616-14.009 16.616 6.272 16.616 14.009z" stroke="#000" stroke-linecap="round" stroke-linejoin="round" stroke-width=".28276"/>
  <g transform="translate(121.07 58.929)" stroke="#000">
   <path d="m192.86 240.93c2.8532-0.23157 5.1286 0.4999 7.5 1.0714-2.1268-1.8501-3.5984-6.3207-7.5-1.0714z"/>
   <path d="m232.52 239.44c3.8518-0.1225 7.7264-0.28052 10.102 1.894-1.3061-4.0886-3.6224-6.4827-10.102-1.894z"/>
  </g>
  <g transform="translate(124.64 60.357)" stroke="#000" stroke-linecap="round" stroke-linejoin="round">
   <path d="m180.54 298.34c2.325-5.8216 6.991-11.53 13.839-16.875-6.2388 4.6246-10.694 10.347-13.839 16.875z" stroke-width=".8"/>
   <path d="m173.64 292.89c4.0405-5.5146 10.592-10.316 19.418-14.181-7.9766 3.2646-14.303 8.1336-19.418 14.181z" stroke-width=".878"/>
   <path d="m169.1 287.06c5.1135-4.5375 12.531-7.8474 21.974-9.7624-8.486 1.5073-15.698 4.9311-21.974 9.7624z" stroke-width=".878"/>
   <g transform="matrix(-1 0 0 1 417.25 .71904)">
    <path d="m180.54 298.34c2.325-5.8216 6.991-11.53 13.839-16.875-6.2388 4.6246-10.694 10.347-13.839 16.875z" stroke-width=".8"/>
    <path d="m173.64 292.89c4.0405-5.5146 10.592-10.316 19.418-14.181-7.9766 3.2646-14.303 8.1336-19.418 14.181z" stroke-width=".878"/>
    <path d="m169.1 287.06c5.1135-4.5375 12.531-7.8474 21.974-9.7624-8.486 1.5073-15.698 4.9311-21.974 9.7624z" stroke-width=".878"/>
   </g>
  </g>
  <g transform="translate(122.53 60.441)" stroke="#000" stroke-linecap="round" stroke-linejoin="round">
   <path d="m193.3 307.81c-1.3106 3.4064-2.6665 7.3552-3.75 8.0357 0.39238-2.9236 1.6912-5.5882 3.75-8.0357z"/>
   <path d="m197.41 319.51c1.5874 0.90332 2.9291 0.82365 4.2857 0.80358 0.066-2.7832 0.28937-4.8585-0.0893-9.6429-1.8962 1.4543-2.9829 5.3371-4.1964 8.8393h1e-5z"/>
  </g>
  <g transform="matrix(.99253 -.12202 .12202 .99253 107.81 96.673)" stroke="#000" stroke-linecap="round" stroke-linejoin="round">
   <path d="m193.3 307.81c-1.3106 3.4064-2.6665 7.3552-3.75 8.0357 0.39238-2.9236 1.6912-5.5882 3.75-8.0357z"/>
   <path d="m197.41 319.51c1.5874 0.90332 2.9291 0.82365 4.2857 0.80358 0.066-2.7832 0.28937-4.8585-0.0893-9.6429-1.8962 1.4543-2.9829 5.3371-4.1964 8.8393h1e-5z"/>
  </g>
  <g transform="matrix(.97994 -.19927 .19927 .97994 120.65 108.23)" stroke="#000" stroke-linecap="round" stroke-linejoin="round">
   <path d="m193.3 307.81c-1.3106 3.4064-2.6665 7.3552-3.75 8.0357 0.39238-2.9236 1.6912-5.5882 3.75-8.0357z"/>
   <path d="m197.41 319.51c1.5874 0.90332 2.9291 0.82365 4.2857 0.80358 0.066-2.7832 0.28937-4.8585-0.0893-9.6429-1.8962 1.4543-2.9829 5.3371-4.1964 8.8393h1e-5z"/>
  </g>
 </g>
 <g transform="matrix(4.0905 0 0 4.0905 -1160.5 -1057.1)">
  <path d="m344.82 371.46c0 8.1856-5.7776 10.536-17.321 10.893-11.549 0.35714-18.036-2.7072-18.036-10.893s7.915-14.821 17.679-14.821 17.679 6.6358 17.679 14.821z" fill="#999" stroke="#999" stroke-linecap="round" stroke-linejoin="round" stroke-width=".3"/>
  <path d="m381.61 370.74c0 8.1856-5.7776 10.536-17.321 10.893-11.549 0.35714-18.036-2.7072-18.036-10.893s7.915-14.821 17.679-14.821 17.679 6.6358 17.679 14.821z" fill="#999" stroke="#999" stroke-linecap="round" stroke-linejoin="round" stroke-width=".3"/>
  <path d="m311.47 267.81c-0.27436 7e-3 -0.54374 0.0315-0.8125 0.0625-10.73 9.5674-11.993 27.822-9.375 41.719-2.8018 5.6834-4.2283 11.925-3.9375 18.406 1.0972 24.453 26.152 43.182 55.969 41.844s53.097-22.235 52-46.688c-0.28327-6.3129-1.6918-12.231-4.3438-17.531 24.907-4.1115 19.738 7.0529 30.156 7.9688 4.8806-0.65245 10.603-0.40216 8.3438-8.8438-4.4146-10.302-23.984-7.4247-42.531-5.4375-2.2126-2.7983-4.8542-5.3566-8.0312-7.5938 0.10854-7.8344-3.5993-17.441-8.1562-23.25-1.0362-0.31188-2.1602-0.46591-3.3438-0.4375-6.7713 0.16252-15.765 7.5096-24.938 13.219-1.0357-2e-3 -2.0768 0.0155-3.125 0.0625-4.524 0.20299-8.9018 0.85867-13.062 1.9062-8.9669-8.0818-17.791-15.591-24.812-15.406z" fill="#ccc"/>
  <g transform="matrix(.98537 .08121 -.07916 1.011 148.28 -8.5496)">
   <path d="m215.18 315.22c4.346-25.655 19.722-27.217 42.143-13.393-6.0805 25.716-25.104 35.128-40 14.643l-2.1429-1.25z" fill="#717171" stroke="#717171"/>
   <path transform="matrix(1.0601 0 0 1.1069 -16.278 -35.909)" d="m252.03 313.44c0 8.0894-7.01 14.647-15.657 14.647s-15.657-6.5578-15.657-14.647 7.01-14.647 15.657-14.647 15.657 6.5578 15.657 14.647z" fill="#f9f9f9" fill-rule="evenodd" stroke="#666"/>
   <path transform="matrix(.89446 0 0 .92986 21.963 18.234)" d="m252.03 313.44c0 8.0894-7.01 14.647-15.657 14.647s-15.657-6.5578-15.657-14.647 7.01-14.647 15.657-14.647 15.657 6.5578 15.657 14.647z" fill="#79c8fd" fill-rule="evenodd" stroke="#79c8fd"/>
   <path transform="matrix(.77975 0 0 .75446 49.532 71.061)" d="m252.03 313.44c0 8.0894-7.01 14.647-15.657 14.647s-15.657-6.5578-15.657-14.647 7.01-14.647 15.657-14.647 15.657 6.5578 15.657 14.647z" fill="#1a6d90" fill-rule="evenodd" stroke="#1a6d90"/>
   <path transform="translate(-1.2627 45.747)" d="m248.24 259.14c0 3.3474-2.8832 6.0609-6.4397 6.0609s-6.4397-2.7136-6.4397-6.0609 2.8832-6.0609 6.4397-6.0609 6.4397 2.7136 6.4397 6.0609z" fill="#fff" stroke="#fff"/>
   <path transform="matrix(.51143 0 0 .43923 120.23 205.43)" d="m248.24 259.14c0 3.3474-2.8832 6.0609-6.4397 6.0609s-6.4397-2.7136-6.4397-6.0609 2.8832-6.0609 6.4397-6.0609 6.4397 2.7136 6.4397 6.0609z" fill="#fff" stroke="#fff"/>
  </g>
  <g transform="matrix(-.86479 -.10102 -.09827 .88899 548.19 68.99)">
   <path d="m215.18 315.22c1.3155-33.736 32.349-22.167 37.597-13.14-6.0805 25.716-20.558 34.875-35.454 14.39l-2.1429-1.25z" fill="#717171" stroke="#717171"/>
   <path transform="matrix(1.0601 0 0 1.1069 -16.278 -35.909)" d="m252.03 313.44c0 8.0894-7.01 14.647-15.657 14.647s-15.657-6.5578-15.657-14.647 7.01-14.647 15.657-14.647 15.657 6.5578 15.657 14.647z" fill="#f9f9f9" fill-rule="evenodd" stroke="#666"/>
   <path transform="matrix(.89446 0 0 .92986 23.479 18.234)" d="m252.03 313.44c0 8.0894-7.01 14.647-15.657 14.647s-15.657-6.5578-15.657-14.647 7.01-14.647 15.657-14.647 15.657 6.5578 15.657 14.647z" fill="#79c8fd" fill-rule="evenodd" stroke="#79c8fd"/>
   <path transform="matrix(.77975 0 0 .75446 49.532 71.061)" d="m252.03 313.44c0 8.0894-7.01 14.647-15.657 14.647s-15.657-6.5578-15.657-14.647 7.01-14.647 15.657-14.647 15.657 6.5578 15.657 14.647z" fill="#1a6d90" fill-rule="evenodd" stroke="#1a6d90"/>
   <path transform="translate(-14.395 46.253)" d="m248.24 259.14c0 3.3474-2.8832 6.0609-6.4397 6.0609s-6.4397-2.7136-6.4397-6.0609 2.8832-6.0609 6.4397-6.0609 6.4397 2.7136 6.4397 6.0609z" fill="#fff" stroke="#fff"/>
   <path transform="matrix(.51143 0 0 .43923 101.29 205.68)" d="m248.24 259.14c0 3.3474-2.8832 6.0609-6.4397 6.0609s-6.4397-2.7136-6.4397-6.0609 2.8832-6.0609 6.4397-6.0609 6.4397 2.7136 6.4397 6.0609z" fill="#fff" stroke="#fff"/>
  </g>
  <path d="m323.21 286.08-13.571 10.714c-3.8931 2.4204-6.6461-0.10447-6.5115-2.5 0.78194-5.7041 0.22978-12.434 7.2258-22.857 5.1 1.3349 9.0838 4.1581 13.214 6.7857 3.0394 2.2866 3.0009 4.8972-0.35715 7.8571z" fill="#fdc7c8" stroke="#fdc7c8"/>
  <path d="m363.19 291.29c4.83 5.1243 8.4744 9.534 13.636 13.405 3.987 3.1245 7.2958 0.6577 7.4249-2.0021-0.19823-6.3871 1.9417-14.256-5.2794-26.07-7.5112 0.50144-11.319 2.2704-15.518 5.448-3.595 2.1704-3.6018 5.5615-0.26339 9.2193z" fill="#fdc7c8" stroke="#fdc7c8" stroke-width="1.106"/>
  <path d="m327.14 331.65 11.429 0.35715-7.1429 4.6428-4.2857-5z" fill="#fdc7c8" stroke="#fdc7c8" stroke-linecap="round" stroke-linejoin="round" stroke-width=".3"/>
  <path d="m324.64 338.79c3.1074 2.0116 8.3377 1.9004 14.286 1.0714-3.8923 2.0033-4.3566 13.311-14.286-1.0714z" fill="#4d4d4d" stroke="#4d4d4d"/>
  <path d="m330.68 340.98c1.7837 0.59693 3.8842 0.71863 5.9978 0.82075-2.0406 0.13193-4.7036 6.3627-5.9978-0.82075z" fill="#f5acb3" stroke="#f5acb3"/>
  <path d="m366.07 380.76c0 8.1866-5.6614 10.537-16.973 10.894-11.317 0.35719-17.673-2.7075-17.673-10.894s7.7557-14.823 17.323-14.823 17.323 6.6366 17.323 14.823z" fill="#ccc" stroke="#ccc" stroke-linecap="round" stroke-linejoin="round" stroke-width=".29698"/>
  <path d="m397.69 374.56c0 7.7369-5.4303 9.9582-16.28 10.296s-16.951-2.5588-16.951-10.296 7.4391-14.009 16.616-14.009 16.616 6.272 16.616 14.009z" fill="#ccc" stroke="#ccc" stroke-linecap="round" stroke-linejoin="round" stroke-width=".28276"/>
  <g transform="translate(121.07 58.929)" fill="#e3e1e0" stroke="#e3e1e0">
   <path d="m192.86 240.93c2.8532-0.23157 5.1286 0.4999 7.5 1.0714-2.1268-1.8501-3.5984-6.3207-7.5-1.0714z"/>
   <path d="m232.52 239.44c3.8518-0.1225 7.7264-0.28052 10.102 1.894-1.3061-4.0886-3.6224-6.4827-10.102-1.894z"/>
  </g>
  <g transform="translate(124.64 60.357)" fill="#dbdbdb" stroke="#dbdbdb" stroke-linecap="round" stroke-linejoin="round">
   <path d="m180.54 298.34c2.325-5.8216 6.991-11.53 13.839-16.875-6.2388 4.6246-10.694 10.347-13.839 16.875z" stroke-width=".8"/>
   <path d="m173.64 292.89c4.0405-5.5146 10.592-10.316 19.418-14.181-7.9766 3.2646-14.303 8.1336-19.418 14.181z" stroke-width=".878"/>
   <path d="m169.1 287.06c5.1135-4.5375 12.531-7.8474 21.974-9.7624-8.486 1.5073-15.698 4.9311-21.974 9.7624z" stroke-width=".878"/>
   <g transform="matrix(-1 0 0 1 417.25 .71904)">
    <path d="m180.54 298.34c2.325-5.8216 6.991-11.53 13.839-16.875-6.2388 4.6246-10.694 10.347-13.839 16.875z" stroke-width=".8"/>
    <path d="m173.64 292.89c4.0405-5.5146 10.592-10.316 19.418-14.181-7.9766 3.2646-14.303 8.1336-19.418 14.181z" stroke-width=".878"/>
    <path d="m169.1 287.06c5.1135-4.5375 12.531-7.8474 21.974-9.7624-8.486 1.5073-15.698 4.9311-21.974 9.7624z" stroke-width=".878"/>
   </g>
  </g>
  <g transform="translate(122.53 60.441)" fill="#666" stroke="#666" stroke-linecap="round" stroke-linejoin="round">
   <path d="m193.3 307.81c-1.3106 3.4064-2.6665 7.3552-3.75 8.0357 0.39238-2.9236 1.6912-5.5882 3.75-8.0357z"/>
   <path d="m197.41 319.51c1.5874 0.90332 2.9291 0.82365 4.2857 0.80358 0.066-2.7832 0.28937-4.8585-0.0893-9.6429-1.8962 1.4543-2.9829 5.3371-4.1964 8.8393h1e-5z"/>
  </g>
  <g transform="matrix(.99253 -.12202 .12202 .99253 107.81 96.673)" fill="#717171" stroke="#717171" stroke-linecap="round" stroke-linejoin="round">
   <path d="m193.3 307.81c-1.3106 3.4064-2.6665 7.3552-3.75 8.0357 0.39238-2.9236 1.6912-5.5882 3.75-8.0357z"/>
   <path d="m197.41 319.51c1.5874 0.90332 2.9291 0.82365 4.2857 0.80358 0.066-2.7832 0.28937-4.8585-0.0893-9.6429-1.8962 1.4543-2.9829 5.3371-4.1964 8.8393h1e-5z"/>
  </g>
  <g transform="matrix(.97994 -.19927 .19927 .97994 120.65 108.23)" fill="#717171" stroke="#717171" stroke-linecap="round" stroke-linejoin="round">
   <path d="m193.3 307.81c-1.3106 3.4064-2.6665 7.3552-3.75 8.0357 0.39238-2.9236 1.6912-5.5882 3.75-8.0357z"/>
   <path d="m197.41 319.51c1.5874 0.90332 2.9291 0.82365 4.2857 0.80358 0.066-2.7832 0.28937-4.8585-0.0893-9.6429-1.8962 1.4543-2.9829 5.3371-4.1964 8.8393h1e-5z"/>
  </g>
 </g>
</svg>
